# xmcd
# 
# Track frame offsets:
#     150
#     20085
#     36241
#     50736
#     67255
#     86529
#     108687
#     124072
#     139922
#     159001
#     169153
#     183221
#     196622
#     210081
# 
# Disc length: 3010
# 
# Revision: 8
# Processed by: cddbd v1.5.2PL0 Copyright (c) Steve Scherf et al.
# Submitted via: fre:ac v1.0.31
# 
DISCID=bf0bc00e
DTITLE=Ian Dury - New Boots And Panties!!
DYEAR=1977
DGENRE=Rock/Pop
TTITLE0=Wake Up And Make Love With Me
TTITLE1=Sweet Gene Vincent
TTITLE2=I'm Partial To Your Abracadabra
TTITLE3=My Old Man
TTITLE4=Billericay Dickie
TTITLE5=Clevor Trevor
TTITLE6=If I Was With A Woman
TTITLE7=Blockheads
TTITLE8=Plaistow Patricia
TTITLE9=Blackmail Man
TTITLE10=Sex and Drugs and Rock and Roll
TTITLE11=Razzle In My Pocket
TTITLE12=You're More Than Fair
TTITLE13=England's Glory [Live]
EXTD=
EXTT0=
EXTT1=
EXTT2=
EXTT3=
EXTT4=
EXTT5=
EXTT6=
EXTT7=
EXTT8=
EXTT9=
EXTT10=
EXTT11=
EXTT12=
EXTT13=
PLAYORDER=
